<svg width="34" height="34" viewBox="0 0 34 34" fill="none" xmlns="http://www.w3.org/2000/svg">
<circle cx="17" cy="17" r="17" fill="#EEF8ED"/>
<g clip-path="url(#clip0_1_9000)">
<path d="M17.0167 24.1083C15.0751 24.1083 13.1334 23.8 11.2917 23.1833C10.5917 22.9417 10.0584 22.45 9.82505 21.8083C9.58339 21.1667 9.66672 20.4583 10.0501 19.825L11.0084 18.2333C11.2084 17.9 11.3917 17.2333 11.3917 16.8417V14.4333C11.3917 11.3333 13.9167 8.80835 17.0167 8.80835C20.1167 8.80835 22.6417 11.3333 22.6417 14.4333V16.8417C22.6417 17.225 22.8251 17.9 23.0251 18.2417L23.9751 19.825C24.3334 20.425 24.4001 21.15 24.1584 21.8083C23.9167 22.4667 23.3917 22.9667 22.7334 23.1833C20.9001 23.8 18.9584 24.1083 17.0167 24.1083ZM17.0167 10.0583C14.6084 10.0583 12.6417 12.0167 12.6417 14.4333V16.8417C12.6417 17.45 12.3917 18.35 12.0834 18.875L11.1251 20.4667C10.9417 20.775 10.8917 21.1 11.0001 21.375C11.1001 21.6583 11.3501 21.875 11.6917 21.9917C15.1751 23.1583 18.8667 23.1583 22.3501 21.9917C22.6501 21.8917 22.8834 21.6667 22.9917 21.3667C23.1001 21.0667 23.0751 20.7417 22.9084 20.4667L21.9501 18.875C21.6334 18.3333 21.3917 17.4417 21.3917 16.8333V14.4333C21.3917 12.0167 19.4334 10.0583 17.0167 10.0583Z" fill="#1B5E37"/>
<path d="M18.5666 10.2834C18.5083 10.2834 18.4499 10.2751 18.3916 10.2584C18.1499 10.1917 17.9166 10.1417 17.6916 10.1084C16.9833 10.0167 16.2999 10.0667 15.6583 10.2584C15.4249 10.3334 15.1749 10.2584 15.0166 10.0834C14.8583 9.9084 14.8083 9.6584 14.8999 9.4334C15.2416 8.5584 16.0749 7.9834 17.0249 7.9834C17.9749 7.9834 18.8083 8.55007 19.1499 9.4334C19.2333 9.6584 19.1916 9.9084 19.0333 10.0834C18.9083 10.2167 18.7333 10.2834 18.5666 10.2834Z" fill="#1B5E37"/>
<path d="M17.0166 26.0083C16.1916 26.0083 15.3916 25.675 14.8083 25.0916C14.2249 24.5083 13.8916 23.7083 13.8916 22.8833H15.1416C15.1416 23.375 15.3416 23.8583 15.6916 24.2083C16.0416 24.5583 16.5249 24.7583 17.0166 24.7583C18.0499 24.7583 18.8916 23.9166 18.8916 22.8833H20.1416C20.1416 24.6083 18.7416 26.0083 17.0166 26.0083Z" fill="#1B5E37"/>
<circle cx="17.0833" cy="9.08333" r="2.08333" fill="#F24135"/>
</g>
<defs>
<clipPath id="clip0_1_9000">
<rect width="20" height="20" fill="white" transform="translate(7 7)"/>
</clipPath>
</defs>
</svg>
