<svg width="20" height="21" viewBox="0 0 20 21" fill="none" xmlns="http://www.w3.org/2000/svg">
<path d="M18.3333 6.54175H13.3333C12.9916 6.54175 12.7083 6.25841 12.7083 5.91675C12.7083 5.57508 12.9916 5.29175 13.3333 5.29175H18.3333C18.6749 5.29175 18.9583 5.57508 18.9583 5.91675C18.9583 6.25841 18.6749 6.54175 18.3333 6.54175Z" fill="#949D9E"/>
<path d="M5.00008 6.54175H1.66675C1.32508 6.54175 1.04175 6.25841 1.04175 5.91675C1.04175 5.57508 1.32508 5.29175 1.66675 5.29175H5.00008C5.34175 5.29175 5.62508 5.57508 5.62508 5.91675C5.62508 6.25841 5.34175 6.54175 5.00008 6.54175Z" fill="#949D9E"/>
<path d="M8.33341 9.45833C6.38341 9.45833 4.79175 7.86667 4.79175 5.91667C4.79175 3.96667 6.38341 2.375 8.33341 2.375C10.2834 2.375 11.8751 3.96667 11.8751 5.91667C11.8751 7.86667 10.2834 9.45833 8.33341 9.45833ZM8.33341 3.625C7.06675 3.625 6.04175 4.65 6.04175 5.91667C6.04175 7.18333 7.06675 8.20833 8.33341 8.20833C9.60008 8.20833 10.6251 7.18333 10.6251 5.91667C10.6251 4.65 9.60008 3.625 8.33341 3.625Z" fill="#949D9E"/>
<path d="M18.3333 15.7083H15C14.6583 15.7083 14.375 15.4249 14.375 15.0833C14.375 14.7416 14.6583 14.4583 15 14.4583H18.3333C18.675 14.4583 18.9583 14.7416 18.9583 15.0833C18.9583 15.4249 18.675 15.7083 18.3333 15.7083Z" fill="#949D9E"/>
<path d="M6.66675 15.7083H1.66675C1.32508 15.7083 1.04175 15.4249 1.04175 15.0833C1.04175 14.7416 1.32508 14.4583 1.66675 14.4583H6.66675C7.00841 14.4583 7.29175 14.7416 7.29175 15.0833C7.29175 15.4249 7.00841 15.7083 6.66675 15.7083Z" fill="#949D9E"/>
<path d="M11.6667 18.6251C9.71667 18.6251 8.125 17.0334 8.125 15.0834C8.125 13.1334 9.71667 11.5417 11.6667 11.5417C13.6167 11.5417 15.2083 13.1334 15.2083 15.0834C15.2083 17.0334 13.6167 18.6251 11.6667 18.6251ZM11.6667 12.7917C10.4 12.7917 9.375 13.8167 9.375 15.0834C9.375 16.3501 10.4 17.3751 11.6667 17.3751C12.9333 17.3751 13.9583 16.3501 13.9583 15.0834C13.9583 13.8167 12.9333 12.7917 11.6667 12.7917Z" fill="#949D9E"/>
</svg>
