<svg width="21" height="20" viewBox="0 0 21 20" fill="none" xmlns="http://www.w3.org/2000/svg">
<path d="M18.0001 5.60827C17.9834 5.60827 17.9584 5.60827 17.9334 5.60827C13.5251 5.16661 9.12505 4.99994 4.76672 5.44161L3.06672 5.60827C2.71672 5.64161 2.40839 5.39161 2.37505 5.04161C2.34172 4.69161 2.59172 4.39161 2.93339 4.35827L4.63339 4.19161C9.06672 3.74161 13.5584 3.91661 18.0584 4.35827C18.4001 4.39161 18.6501 4.69994 18.6167 5.04161C18.5917 5.36661 18.3167 5.60827 18.0001 5.60827Z" fill="#949D9E"/>
<path d="M7.58338 4.76663C7.55005 4.76663 7.51672 4.76663 7.47505 4.75829C7.14172 4.69996 6.90838 4.37496 6.96672 4.04163L7.15005 2.94996C7.28338 2.14996 7.46671 1.04163 9.40838 1.04163H11.5917C13.5417 1.04163 13.725 2.19163 13.85 2.95829L14.0334 4.04163C14.0917 4.38329 13.8584 4.70829 13.525 4.75829C13.1834 4.81663 12.8584 4.58329 12.8084 4.24996L12.625 3.16663C12.5084 2.44163 12.4834 2.29996 11.6 2.29996H9.41672C8.53338 2.29996 8.51672 2.41663 8.39172 3.15829L8.20005 4.24163C8.15005 4.54996 7.88338 4.76663 7.58338 4.76663Z" fill="#949D9E"/>
<path d="M13.175 18.9583H7.825C4.91666 18.9583 4.8 17.3499 4.70833 16.0499L4.16666 7.65827C4.14166 7.31661 4.40833 7.01661 4.75 6.99161C5.1 6.97494 5.39166 7.23327 5.41666 7.57494L5.95833 15.9666C6.05 17.2333 6.08333 17.7083 7.825 17.7083H13.175C14.925 17.7083 14.9583 17.2333 15.0417 15.9666L15.5833 7.57494C15.6083 7.23327 15.9083 6.97494 16.25 6.99161C16.5917 7.01661 16.8583 7.30827 16.8333 7.65827L16.2917 16.0499C16.2 17.3499 16.0833 18.9583 13.175 18.9583Z" fill="#949D9E"/>
<path d="M11.8834 14.375H9.1084C8.76673 14.375 8.4834 14.0917 8.4834 13.75C8.4834 13.4083 8.76673 13.125 9.1084 13.125H11.8834C12.2251 13.125 12.5084 13.4083 12.5084 13.75C12.5084 14.0917 12.2251 14.375 11.8834 14.375Z" fill="#949D9E"/>
<path d="M12.5834 11.0416H8.41675C8.07508 11.0416 7.79175 10.7583 7.79175 10.4166C7.79175 10.075 8.07508 9.79163 8.41675 9.79163H12.5834C12.9251 9.79163 13.2084 10.075 13.2084 10.4166C13.2084 10.7583 12.9251 11.0416 12.5834 11.0416Z" fill="#949D9E"/>
</svg>
