<svg width="16" height="16" viewBox="0 0 16 16" fill="none" xmlns="http://www.w3.org/2000/svg">
<path d="M14.6667 5.68004V2.65337C14.6667 1.71337 14.24 1.33337 13.18 1.33337H10.4867C9.42667 1.33337 9 1.71337 9 2.65337V5.67337C9 6.62004 9.42667 6.99337 10.4867 6.99337H13.18C14.24 7.00004 14.6667 6.62004 14.6667 5.68004Z" fill="white"/>
<path d="M14.6667 13.18V10.4867C14.6667 9.42667 14.24 9 13.18 9H10.4867C9.42667 9 9 9.42667 9 10.4867V13.18C9 14.24 9.42667 14.6667 10.4867 14.6667H13.18C14.24 14.6667 14.6667 14.24 14.6667 13.18Z" fill="white"/>
<path d="M6.99992 5.68004V2.65337C6.99992 1.71337 6.57325 1.33337 5.51325 1.33337H2.81992C1.75992 1.33337 1.33325 1.71337 1.33325 2.65337V5.67337C1.33325 6.62004 1.75992 6.99337 2.81992 6.99337H5.51325C6.57325 7.00004 6.99992 6.62004 6.99992 5.68004Z" fill="white"/>
<path d="M6.99992 13.18V10.4867C6.99992 9.42667 6.57325 9 5.51325 9H2.81992C1.75992 9 1.33325 9.42667 1.33325 10.4867V13.18C1.33325 14.24 1.75992 14.6667 2.81992 14.6667H5.51325C6.57325 14.6667 6.99992 14.24 6.99992 13.18Z" fill="white"/>
</svg>
