<svg width="16" height="16" viewBox="0 0 16 16" fill="none" xmlns="http://www.w3.org/2000/svg">
<path d="M13.8866 5.33993L9.51989 1.8466C8.66656 1.1666 7.33323 1.15993 6.48656 1.83993L2.11989 5.33993C1.49323 5.83993 1.11323 6.83993 1.24656 7.6266L2.08656 12.6533C2.27989 13.7799 3.32656 14.6666 4.46656 14.6666H11.5332C12.6599 14.6666 13.7266 13.7599 13.9199 12.6466L14.7599 7.61993C14.8799 6.83993 14.4999 5.83993 13.8866 5.33993ZM8.49989 11.9999C8.49989 12.2733 8.27323 12.4999 7.99989 12.4999C7.72656 12.4999 7.49989 12.2733 7.49989 11.9999V9.99993C7.49989 9.7266 7.72656 9.49993 7.99989 9.49993C8.27323 9.49993 8.49989 9.7266 8.49989 9.99993V11.9999Z" fill="white"/>
</svg>
