<svg width="16" height="16" viewBox="0 0 16 16" fill="none" xmlns="http://www.w3.org/2000/svg">
<path d="M10.8334 15.0001C11.4777 15.0001 12.0001 14.4777 12.0001 13.8334C12.0001 13.1891 11.4777 12.6667 10.8334 12.6667C10.1891 12.6667 9.66675 13.1891 9.66675 13.8334C9.66675 14.4777 10.1891 15.0001 10.8334 15.0001Z" fill="white"/>
<path d="M5.49992 15.0001C6.14425 15.0001 6.66658 14.4777 6.66658 13.8334C6.66658 13.1891 6.14425 12.6667 5.49992 12.6667C4.85559 12.6667 4.33325 13.1891 4.33325 13.8334C4.33325 14.4777 4.85559 15.0001 5.49992 15.0001Z" fill="white"/>
<path d="M3.22659 2.62659L3.09325 4.25992C3.06659 4.57325 3.31325 4.83325 3.62659 4.83325H13.8333C14.1133 4.83325 14.3466 4.61992 14.3666 4.33992C14.4533 3.15992 13.5533 2.19992 12.3733 2.19992H4.17992C4.11325 1.90659 3.97992 1.62659 3.77325 1.39325C3.43992 1.03992 2.97325 0.833252 2.49325 0.833252H1.33325C1.05992 0.833252 0.833252 1.05992 0.833252 1.33325C0.833252 1.60659 1.05992 1.83325 1.33325 1.83325H2.49325C2.69992 1.83325 2.89325 1.91992 3.03325 2.06659C3.17325 2.21992 3.23992 2.41992 3.22659 2.62659Z" fill="white"/>
<path d="M13.6735 5.83325H3.44678C3.16678 5.83325 2.94012 6.04658 2.91345 6.31992L2.67345 9.21992C2.58012 10.3599 3.47345 11.3333 4.61345 11.3333H12.0268C13.0268 11.3333 13.9068 10.5133 13.9801 9.51325L14.2001 6.39992C14.2268 6.09325 13.9868 5.83325 13.6735 5.83325Z" fill="white"/>
</svg>
