<svg width="16" height="16" viewBox="0 0 16 16" fill="none" xmlns="http://www.w3.org/2000/svg">
<path d="M11.7333 15.04H4.26664C3.05331 15.04 1.94664 14.1066 1.74664 12.9133L0.859974 7.59996C0.713307 6.7733 1.11997 5.7133 1.77997 5.18663L6.39997 1.48663C7.29331 0.766629 8.69997 0.773296 9.59997 1.4933L14.22 5.18663C14.8733 5.7133 15.2733 6.7733 15.14 7.59996L14.2533 12.9066C14.0533 14.0866 12.92 15.04 11.7333 15.04ZM7.99331 1.9533C7.63997 1.9533 7.28664 2.05996 7.02664 2.26663L2.40664 5.9733C2.03331 6.2733 1.76664 6.96663 1.84664 7.43996L2.73331 12.7466C2.85331 13.4466 3.55331 14.04 4.26664 14.04H11.7333C12.4466 14.04 13.1466 13.4466 13.2666 12.74L14.1533 7.4333C14.2266 6.96663 13.96 6.25996 13.5933 5.96663L8.97331 2.2733C8.70664 2.05996 8.34664 1.9533 7.99331 1.9533Z" fill="#4E5556"/>
</svg>
